<?xml version="1.0" encoding="UTF-8" standalone="no"?>
<!DOCTYPE svg PUBLIC "-//W3C//DTD SVG 1.1//EN"
 "http://www.w3.org/Graphics/SVG/1.1/DTD/svg11.dtd">
<!-- Generated by graphviz version 2.47.1 (20210417.1919)
 -->
<!-- Title: teste Pages: 1 -->
<svg width="449pt" height="174pt"
 viewBox="0.00 0.00 449.00 174.00" xmlns="http://www.w3.org/2000/svg" xmlns:xlink="http://www.w3.org/1999/xlink">
<g id="graph0" class="graph" transform="scale(1 1) rotate(0) translate(4 170)">
<title>teste</title>
<polygon fill="white" stroke="transparent" points="-4,4 -4,-170 445,-170 445,4 -4,4"/>
<!-- Start -->
<g id="node1" class="node">
<title>Start</title>
</g>
<!-- A -->
<g id="node4" class="node">
<title>A</title>
<ellipse fill="none" stroke="black" cx="109" cy="-132" rx="18" ry="18"/>
<text text-anchor="middle" x="109" y="-128.3" font-family="Times New Roman,serif" font-size="14.00">A</text>
</g>
<!-- Start&#45;&gt;A -->
<g id="edge1" class="edge">
<title>Start&#45;&gt;A</title>
<path fill="none" stroke="black" d="M54.19,-132C62.65,-132 72.05,-132 80.6,-132"/>
<polygon fill="black" stroke="black" points="90.83,-132 80.83,-136.5 85.83,-132 80.83,-132 80.83,-132 80.83,-132 85.83,-132 80.83,-127.5 90.83,-132 90.83,-132"/>
</g>
<!-- C -->
<g id="node2" class="node">
<title>C</title>
<ellipse fill="none" stroke="black" cx="307" cy="-67" rx="18" ry="18"/>
<text text-anchor="middle" x="307" y="-63.3" font-family="Times New Roman,serif" font-size="14.00">C</text>
</g>
<!-- T -->
<g id="node3" class="node">
<title>T</title>
<ellipse fill="none" stroke="black" cx="419" cy="-113" rx="18" ry="18"/>
<text text-anchor="middle" x="419" y="-109.3" font-family="Times New Roman,serif" font-size="14.00">T</text>
</g>
<!-- C&#45;&gt;T -->
<g id="edge7" class="edge">
<title>C&#45;&gt;T</title>
<path fill="none" stroke="black" d="M323.76,-73.59C341.71,-81.1 371.29,-93.47 392.53,-102.35"/>
<polygon fill="black" stroke="black" points="401.91,-106.27 390.95,-106.57 397.3,-104.34 392.69,-102.41 392.69,-102.41 392.69,-102.41 397.3,-104.34 394.42,-98.26 401.91,-106.27 401.91,-106.27"/>
<text text-anchor="middle" x="361" y="-98.8" font-family="Times New Roman,serif" font-size="14.00">11R</text>
</g>
<!-- C&#45;&gt;T -->
<g id="edge8" class="edge">
<title>C&#45;&gt;T</title>
<path fill="none" stroke="black" d="M324.4,-61.7C339.4,-57.84 361.8,-54.6 379,-63 389.91,-68.33 398.65,-78.34 405.08,-88.01"/>
<polygon fill="black" stroke="black" points="410.32,-96.66 401.29,-90.44 407.73,-92.38 405.13,-88.11 405.13,-88.11 405.13,-88.11 407.73,-92.38 408.98,-85.77 410.32,-96.66 410.32,-96.66"/>
<text text-anchor="middle" x="361" y="-66.8" font-family="Times New Roman,serif" font-size="14.00">00R</text>
</g>
<!-- D -->
<g id="node6" class="node">
<title>D</title>
<ellipse fill="none" stroke="black" cx="419" cy="-22" rx="18" ry="18"/>
<ellipse fill="none" stroke="black" cx="419" cy="-22" rx="22" ry="22"/>
<text text-anchor="middle" x="419" y="-18.3" font-family="Times New Roman,serif" font-size="14.00">D</text>
</g>
<!-- C&#45;&gt;D -->
<g id="edge9" class="edge">
<title>C&#45;&gt;D</title>
<path fill="none" stroke="black" d="M316.01,-50.91C321.95,-40.9 331.08,-28.85 343,-23 356.42,-16.42 372.87,-15.54 386.95,-16.57"/>
<polygon fill="black" stroke="black" points="397.16,-17.66 386.74,-21.07 392.19,-17.13 387.22,-16.6 387.22,-16.6 387.22,-16.6 392.19,-17.13 387.7,-12.12 397.16,-17.66 397.16,-17.66"/>
<text text-anchor="middle" x="361" y="-26.8" font-family="Times New Roman,serif" font-size="14.00">@@R</text>
</g>
<!-- A&#45;&gt;T -->
<g id="edge2" class="edge">
<title>A&#45;&gt;T</title>
<path fill="none" stroke="black" d="M126.33,-137.33C142.34,-142.27 167.55,-149.24 190,-152 255.54,-160.07 378.14,-128.23 379,-128 383.54,-126.79 388.27,-125.23 392.82,-123.57"/>
<polygon fill="black" stroke="black" points="402.31,-119.91 394.61,-127.71 397.65,-121.71 392.99,-123.51 392.99,-123.51 392.99,-123.51 397.65,-121.71 391.36,-119.31 402.31,-119.91 402.31,-119.91"/>
<text text-anchor="middle" x="257.5" y="-154.8" font-family="Times New Roman,serif" font-size="14.00">11R</text>
</g>
<!-- B -->
<g id="node5" class="node">
<title>B</title>
<ellipse fill="none" stroke="black" cx="208" cy="-92" rx="18" ry="18"/>
<text text-anchor="middle" x="208" y="-88.3" font-family="Times New Roman,serif" font-size="14.00">B</text>
</g>
<!-- A&#45;&gt;B -->
<g id="edge3" class="edge">
<title>A&#45;&gt;B</title>
<path fill="none" stroke="black" d="M126.02,-125.39C141.04,-119.2 163.76,-109.83 181.32,-102.59"/>
<polygon fill="black" stroke="black" points="190.96,-98.61 183.43,-106.59 186.34,-100.52 181.71,-102.43 181.71,-102.43 181.71,-102.43 186.34,-100.52 180,-98.27 190.96,-98.61 190.96,-98.61"/>
<text text-anchor="middle" x="158.5" y="-119.8" font-family="Times New Roman,serif" font-size="14.00">0XR</text>
</g>
<!-- B&#45;&gt;C -->
<g id="edge6" class="edge">
<title>B&#45;&gt;C</title>
<path fill="none" stroke="black" d="M225.9,-87.65C240.64,-83.85 262.29,-78.27 279.36,-73.87"/>
<polygon fill="black" stroke="black" points="289.3,-71.3 280.74,-78.16 284.46,-72.55 279.61,-73.8 279.61,-73.8 279.61,-73.8 284.46,-72.55 278.49,-69.44 289.3,-71.3 289.3,-71.3"/>
<text text-anchor="middle" x="257.5" y="-86.8" font-family="Times New Roman,serif" font-size="14.00">0XR</text>
</g>
<!-- B&#45;&gt;T -->
<g id="edge5" class="edge">
<title>B&#45;&gt;T</title>
<path fill="none" stroke="black" d="M225.25,-97.22C231.11,-98.95 237.81,-100.75 244,-102 303.04,-113.94 318.77,-114.77 379,-114 382.81,-113.95 386.84,-113.88 390.79,-113.79"/>
<polygon fill="black" stroke="black" points="400.92,-113.53 391.03,-118.28 395.92,-113.66 390.92,-113.78 390.92,-113.78 390.92,-113.78 395.92,-113.66 390.81,-109.29 400.92,-113.53 400.92,-113.53"/>
<text text-anchor="middle" x="307" y="-116.8" font-family="Times New Roman,serif" font-size="14.00">@@R</text>
</g>
<!-- B&#45;&gt;B -->
<g id="edge4" class="edge">
<title>B&#45;&gt;B</title>
<path fill="none" stroke="black" d="M199.64,-108.29C197.62,-118.39 200.41,-128 208,-128 212.86,-128 215.76,-124.06 216.68,-118.57"/>
<polygon fill="black" stroke="black" points="216.36,-108.29 221.17,-118.15 216.52,-113.29 216.67,-118.29 216.67,-118.29 216.67,-118.29 216.52,-113.29 212.17,-118.42 216.36,-108.29 216.36,-108.29"/>
<text text-anchor="middle" x="208" y="-131.8" font-family="Times New Roman,serif" font-size="14.00">1YR</text>
</g>
</g>
</svg>
