<?xml version="1.0" encoding="UTF-8" standalone="no"?>
<!DOCTYPE svg PUBLIC "-//W3C//DTD SVG 1.1//EN"
 "http://www.w3.org/Graphics/SVG/1.1/DTD/svg11.dtd">
<!-- Generated by graphviz version 2.47.1 (20210417.1919)
 -->
<!-- Title: Máquina de Turing que aceita sequências do tipo 01*0 Pages: 1 -->
<svg width="468pt" height="139pt"
 viewBox="0.00 0.00 468.00 139.00" xmlns="http://www.w3.org/2000/svg" xmlns:xlink="http://www.w3.org/1999/xlink">
<g id="graph0" class="graph" transform="scale(1 1) rotate(0) translate(4 135)">
<title>Máquina de Turing que aceita sequências do tipo 01*0</title>
<polygon fill="white" stroke="transparent" points="-4,4 -4,-135 464,-135 464,4 -4,4"/>
<!-- Start -->
<g id="node1" class="node">
<title>Start</title>
</g>
<!-- A -->
<g id="node2" class="node">
<title>A</title>
<ellipse fill="none" stroke="black" cx="109" cy="-94" rx="18" ry="18"/>
<text text-anchor="middle" x="109" y="-90.3" font-family="Times New Roman,serif" font-size="14.00">A</text>
</g>
<!-- Start&#45;&gt;A -->
<g id="edge1" class="edge">
<title>Start&#45;&gt;A</title>
<path fill="none" stroke="black" d="M54.19,-94C62.65,-94 72.05,-94 80.6,-94"/>
<polygon fill="black" stroke="black" points="90.83,-94 80.83,-98.5 85.83,-94 80.83,-94 80.83,-94 80.83,-94 85.83,-94 80.83,-89.5 90.83,-94 90.83,-94"/>
</g>
<!-- T -->
<g id="node3" class="node">
<title>T</title>
<ellipse fill="none" stroke="black" cx="438" cy="-90" rx="18" ry="18"/>
<text text-anchor="middle" x="438" y="-86.3" font-family="Times New Roman,serif" font-size="14.00">T</text>
</g>
<!-- A&#45;&gt;T -->
<g id="edge2" class="edge">
<title>A&#45;&gt;T</title>
<path fill="none" stroke="black" d="M126.33,-99.33C142.34,-104.27 167.55,-111.24 190,-114 269.97,-123.84 364.91,-106.5 410.27,-96.43"/>
<polygon fill="black" stroke="black" points="420.2,-94.17 411.45,-100.78 415.32,-95.28 410.45,-96.4 410.45,-96.4 410.45,-96.4 415.32,-95.28 409.45,-92.01 420.2,-94.17 420.2,-94.17"/>
<text text-anchor="middle" x="257.5" y="-119.8" font-family="Times New Roman,serif" font-size="14.00">11R</text>
</g>
<!-- B -->
<g id="node4" class="node">
<title>B</title>
<ellipse fill="none" stroke="black" cx="208" cy="-54" rx="18" ry="18"/>
<text text-anchor="middle" x="208" y="-50.3" font-family="Times New Roman,serif" font-size="14.00">B</text>
</g>
<!-- A&#45;&gt;B -->
<g id="edge3" class="edge">
<title>A&#45;&gt;B</title>
<path fill="none" stroke="black" d="M126.02,-87.39C141.04,-81.2 163.76,-71.83 181.32,-64.59"/>
<polygon fill="black" stroke="black" points="190.96,-60.61 183.43,-68.59 186.34,-62.52 181.71,-64.43 181.71,-64.43 181.71,-64.43 186.34,-62.52 180,-60.27 190.96,-60.61 190.96,-60.61"/>
<text text-anchor="middle" x="158.5" y="-81.8" font-family="Times New Roman,serif" font-size="14.00">0XR</text>
</g>
<!-- B&#45;&gt;T -->
<g id="edge5" class="edge">
<title>B&#45;&gt;T</title>
<path fill="none" stroke="black" d="M224.78,-60.77C230.71,-63.07 237.57,-65.45 244,-67 302.06,-81.03 372.11,-86.66 409.81,-88.79"/>
<polygon fill="black" stroke="black" points="419.98,-89.32 409.76,-93.29 414.99,-89.06 410,-88.8 410,-88.8 410,-88.8 414.99,-89.06 410.23,-84.31 419.98,-89.32 419.98,-89.32"/>
<text text-anchor="middle" x="307" y="-83.8" font-family="Times New Roman,serif" font-size="14.00">@@R</text>
</g>
<!-- B&#45;&gt;B -->
<g id="edge4" class="edge">
<title>B&#45;&gt;B</title>
<path fill="none" stroke="black" d="M199.64,-70.29C197.62,-80.39 200.41,-90 208,-90 212.86,-90 215.76,-86.06 216.68,-80.57"/>
<polygon fill="black" stroke="black" points="216.36,-70.29 221.17,-80.15 216.52,-75.29 216.67,-80.29 216.67,-80.29 216.67,-80.29 216.52,-75.29 212.17,-80.42 216.36,-70.29 216.36,-70.29"/>
<text text-anchor="middle" x="208" y="-93.8" font-family="Times New Roman,serif" font-size="14.00">1YR</text>
</g>
<!-- C -->
<g id="node5" class="node">
<title>C</title>
<ellipse fill="none" stroke="black" cx="307" cy="-36" rx="18" ry="18"/>
<text text-anchor="middle" x="307" y="-32.3" font-family="Times New Roman,serif" font-size="14.00">C</text>
</g>
<!-- B&#45;&gt;C -->
<g id="edge6" class="edge">
<title>B&#45;&gt;C</title>
<path fill="none" stroke="black" d="M225.9,-50.86C240.55,-48.15 262.02,-44.16 279.05,-41"/>
<polygon fill="black" stroke="black" points="288.97,-39.16 279.96,-45.41 284.06,-40.07 279.14,-40.98 279.14,-40.98 279.14,-40.98 284.06,-40.07 278.32,-36.56 288.97,-39.16 288.97,-39.16"/>
<text text-anchor="middle" x="257.5" y="-51.8" font-family="Times New Roman,serif" font-size="14.00">0XR</text>
</g>
<!-- C&#45;&gt;T -->
<g id="edge7" class="edge">
<title>C&#45;&gt;T</title>
<path fill="none" stroke="black" d="M324.92,-38.77C343.53,-42.25 373.97,-49.24 398,-61 404.17,-64.02 410.35,-68.05 415.93,-72.14"/>
<polygon fill="black" stroke="black" points="424.08,-78.49 413.43,-75.9 420.14,-75.42 416.19,-72.35 416.19,-72.35 416.19,-72.35 420.14,-75.42 418.95,-68.8 424.08,-78.49 424.08,-78.49"/>
<text text-anchor="middle" x="370.5" y="-64.8" font-family="Times New Roman,serif" font-size="14.00">11R, 00R</text>
</g>
<!-- D -->
<g id="node6" class="node">
<title>D</title>
<ellipse fill="none" stroke="black" cx="438" cy="-22" rx="18" ry="18"/>
<ellipse fill="none" stroke="black" cx="438" cy="-22" rx="22" ry="22"/>
<text text-anchor="middle" x="438" y="-18.3" font-family="Times New Roman,serif" font-size="14.00">D</text>
</g>
<!-- C&#45;&gt;D -->
<g id="edge8" class="edge">
<title>C&#45;&gt;D</title>
<path fill="none" stroke="black" d="M323.7,-28.85C329.62,-26.51 336.5,-24.2 343,-23 363.66,-19.17 387.31,-18.94 405.72,-19.66"/>
<polygon fill="black" stroke="black" points="415.89,-20.17 405.68,-24.16 410.9,-19.92 405.91,-19.67 405.91,-19.67 405.91,-19.67 410.9,-19.92 406.13,-15.17 415.89,-20.17 415.89,-20.17"/>
<text text-anchor="middle" x="370.5" y="-26.8" font-family="Times New Roman,serif" font-size="14.00">@@R</text>
</g>
</g>
</svg>
