<?xml version="1.0" encoding="UTF-8" standalone="no"?>
<!DOCTYPE svg PUBLIC "-//W3C//DTD SVG 1.1//EN"
 "http://www.w3.org/Graphics/SVG/1.1/DTD/svg11.dtd">
<!-- Generated by graphviz version 2.47.1 (20210417.1919)
 -->
<!-- Title: Máquina de Turing que aceita sequências do tipo 01*0 Pages: 1 -->
<svg width="468pt" height="149pt"
 viewBox="0.00 0.00 468.00 149.00" xmlns="http://www.w3.org/2000/svg" xmlns:xlink="http://www.w3.org/1999/xlink">
<g id="graph0" class="graph" transform="scale(1 1) rotate(0) translate(4 145)">
<title>Máquina de Turing que aceita sequências do tipo 01*0</title>
<polygon fill="white" stroke="transparent" points="-4,4 -4,-145 464,-145 464,4 -4,4"/>
<!-- Start -->
<g id="node1" class="node">
<title>Start</title>
</g>
<!-- A -->
<g id="node4" class="node">
<title>A</title>
<ellipse fill="none" stroke="black" cx="109" cy="-18" rx="18" ry="18"/>
<text text-anchor="middle" x="109" y="-14.3" font-family="Times New Roman,serif" font-size="14.00">A</text>
</g>
<!-- Start&#45;&gt;A -->
<g id="edge1" class="edge">
<title>Start&#45;&gt;A</title>
<path fill="none" stroke="black" d="M54.19,-18C62.65,-18 72.05,-18 80.6,-18"/>
<polygon fill="black" stroke="black" points="90.83,-18 80.83,-22.5 85.83,-18 80.83,-18 80.83,-18 80.83,-18 85.83,-18 80.83,-13.5 90.83,-18 90.83,-18"/>
</g>
<!-- C -->
<g id="node2" class="node">
<title>C</title>
<ellipse fill="none" stroke="black" cx="307" cy="-99" rx="18" ry="18"/>
<text text-anchor="middle" x="307" y="-95.3" font-family="Times New Roman,serif" font-size="14.00">C</text>
</g>
<!-- T -->
<g id="node5" class="node">
<title>T</title>
<ellipse fill="none" stroke="black" cx="438" cy="-48" rx="18" ry="18"/>
<text text-anchor="middle" x="438" y="-44.3" font-family="Times New Roman,serif" font-size="14.00">T</text>
</g>
<!-- C&#45;&gt;T -->
<g id="edge7" class="edge">
<title>C&#45;&gt;T</title>
<path fill="none" stroke="black" d="M324.02,-92.57C329.98,-90.18 336.8,-87.46 343,-85 366.21,-75.79 392.69,-65.38 411.61,-57.95"/>
<polygon fill="black" stroke="black" points="421.02,-54.26 413.36,-62.1 416.37,-56.08 411.71,-57.91 411.71,-57.91 411.71,-57.91 416.37,-56.08 410.07,-53.72 421.02,-54.26 421.02,-54.26"/>
<text text-anchor="middle" x="370.5" y="-88.8" font-family="Times New Roman,serif" font-size="14.00">11R, 00R</text>
</g>
<!-- D -->
<g id="node6" class="node">
<title>D</title>
<ellipse fill="none" stroke="black" cx="438" cy="-119" rx="18" ry="18"/>
<ellipse fill="none" stroke="black" cx="438" cy="-119" rx="22" ry="22"/>
<text text-anchor="middle" x="438" y="-115.3" font-family="Times New Roman,serif" font-size="14.00">D</text>
</g>
<!-- C&#45;&gt;D -->
<g id="edge8" class="edge">
<title>C&#45;&gt;D</title>
<path fill="none" stroke="black" d="M324.86,-101.61C345.39,-104.8 380.47,-110.24 405.93,-114.18"/>
<polygon fill="black" stroke="black" points="415.85,-115.72 405.28,-118.64 410.91,-114.95 405.97,-114.19 405.97,-114.19 405.97,-114.19 410.91,-114.95 406.65,-109.74 415.85,-115.72 415.85,-115.72"/>
<text text-anchor="middle" x="370.5" y="-115.8" font-family="Times New Roman,serif" font-size="14.00">@@R</text>
</g>
<!-- B -->
<g id="node3" class="node">
<title>B</title>
<ellipse fill="none" stroke="black" cx="208" cy="-48" rx="18" ry="18"/>
<text text-anchor="middle" x="208" y="-44.3" font-family="Times New Roman,serif" font-size="14.00">B</text>
</g>
<!-- B&#45;&gt;C -->
<g id="edge6" class="edge">
<title>B&#45;&gt;C</title>
<path fill="none" stroke="black" d="M224.16,-55.97C239.44,-64.01 263.29,-76.55 281.31,-86.02"/>
<polygon fill="black" stroke="black" points="290.63,-90.92 279.68,-90.25 286.2,-88.59 281.78,-86.27 281.78,-86.27 281.78,-86.27 286.2,-88.59 283.87,-82.28 290.63,-90.92 290.63,-90.92"/>
<text text-anchor="middle" x="257.5" y="-82.8" font-family="Times New Roman,serif" font-size="14.00">0XR</text>
</g>
<!-- B&#45;&gt;B -->
<g id="edge4" class="edge">
<title>B&#45;&gt;B</title>
<path fill="none" stroke="black" d="M199.64,-64.29C197.62,-74.39 200.41,-84 208,-84 212.86,-84 215.76,-80.06 216.68,-74.57"/>
<polygon fill="black" stroke="black" points="216.36,-64.29 221.17,-74.15 216.52,-69.29 216.67,-74.29 216.67,-74.29 216.67,-74.29 216.52,-69.29 212.17,-74.42 216.36,-64.29 216.36,-64.29"/>
<text text-anchor="middle" x="208" y="-87.8" font-family="Times New Roman,serif" font-size="14.00">1YR</text>
</g>
<!-- B&#45;&gt;T -->
<g id="edge5" class="edge">
<title>B&#45;&gt;T</title>
<path fill="none" stroke="black" d="M226.14,-48C265.43,-48 362.3,-48 409.82,-48"/>
<polygon fill="black" stroke="black" points="419.98,-48 409.98,-52.5 414.98,-48 409.98,-48 409.98,-48 409.98,-48 414.98,-48 409.98,-43.5 419.98,-48 419.98,-48"/>
<text text-anchor="middle" x="307" y="-51.8" font-family="Times New Roman,serif" font-size="14.00">@@R</text>
</g>
<!-- A&#45;&gt;B -->
<g id="edge3" class="edge">
<title>A&#45;&gt;B</title>
<path fill="none" stroke="black" d="M126.45,-23.09C141.23,-27.66 163.18,-34.45 180.43,-39.78"/>
<polygon fill="black" stroke="black" points="190.46,-42.89 179.58,-44.23 185.69,-41.41 180.91,-39.93 180.91,-39.93 180.91,-39.93 185.69,-41.41 182.24,-35.63 190.46,-42.89 190.46,-42.89"/>
<text text-anchor="middle" x="158.5" y="-40.8" font-family="Times New Roman,serif" font-size="14.00">0XR</text>
</g>
<!-- A&#45;&gt;T -->
<g id="edge2" class="edge">
<title>A&#45;&gt;T</title>
<path fill="none" stroke="black" d="M127.32,-17.9C150.02,-17.9 191.05,-18.32 226,-21 292.45,-26.1 370.06,-37.42 410.08,-43.67"/>
<polygon fill="black" stroke="black" points="420.1,-45.25 409.52,-48.13 415.16,-44.47 410.22,-43.69 410.22,-43.69 410.22,-43.69 415.16,-44.47 410.93,-39.24 420.1,-45.25 420.1,-45.25"/>
<text text-anchor="middle" x="257.5" y="-29.8" font-family="Times New Roman,serif" font-size="14.00">11R</text>
</g>
</g>
</svg>
